<svg class="icon" viewBox="0 0 1025 1024" xmlns="http://www.w3.org/2000/svg" width="200.195" height="200"><defs><style/></defs><path d="M938.978 1024H640.767V683.645h-255.8v339.822H85.689v-13.07c0-176.58 0-352.892.267-529.472 0-5.868 3.467-13.87 8.002-17.604 138.436-111.23 277.139-222.192 416.108-333.154.534-.533 1.6-.8 3.201-1.333 45.345 36.276 91.224 72.819 136.836 109.361 91.49 73.353 182.98 146.705 275.005 219.524 10.402 8.269 14.403 16.538 14.403 29.875-.533 173.912-.266 347.557-.266 521.469-.267 4.801-.267 9.869-.267 14.937z"/><path d="M85.422 85.889h169.911v119.498C342.556 135.769 426.844 68.284 512.2 0c22.94 18.405 46.145 36.81 69.351 55.214 144.571 115.764 289.142 231.527 433.98 347.024 6.669 5.335 9.603 10.136 9.336 18.672-.8 13.603-.267 27.207-.267 44.011C852.29 327.285 682.644 191.517 512.2 55.214 342.022 191.517 172.111 327.285.067 464.921c0-19.205-.267-35.476.266-51.48 0-3.2 3.735-6.668 6.402-9.069 22.673-18.405 45.612-36.81 68.818-54.68 7.469-5.87 10.136-12.004 9.87-21.34V101.626 85.89z"/></svg>